<?xml version="1.0" standalone="no"?>
<!DOCTYPE svg PUBLIC "-//W3C//DTD SVG 20010904//EN"
 "http://www.w3.org/TR/2001/REC-SVG-20010904/DTD/svg10.dtd">
<svg version="1.0" xmlns="http://www.w3.org/2000/svg"
 width="500.000000pt" height="500.000000pt" viewBox="0 0 500.000000 500.000000"
 preserveAspectRatio="xMidYMid meet">

<g transform="translate(0.000000,500.000000) scale(0.100000,-0.100000)"
fill="#000000" stroke="none">
<path d="M0 2500 l0 -2500 2500 0 2500 0 0 2500 0 2500 -2500 0 -2500 0 0
-2500z m3242 1614 c25 -8 54 -24 64 -35 17 -19 17 -19 -22 -2 -30 14 -65 17
-151 17 -103 -1 -113 1 -113 18 0 16 9 18 88 18 54 0 106 -6 134 -16z m-304
-26 c-3 -19 -15 -25 -78 -40 -79 -18 -215 -24 -206 -9 3 5 34 14 68 20 35 6
92 20 128 31 86 25 92 24 88 -2z m310 -23 c55 -17 126 -54 118 -62 -3 -3 -29
3 -58 13 -41 15 -80 19 -170 18 -107 -1 -118 0 -118 17 0 9 8 20 18 22 40 11
162 6 210 -8z m-308 -40 c0 -20 -7 -26 -37 -34 -141 -38 -262 -51 -292 -32
-12 8 -10 11 10 15 70 15 245 59 263 66 39 16 56 12 56 -15z m296 -32 c53 -17
98 -43 90 -50 -3 -3 -25 3 -50 12 -35 14 -68 16 -150 13 -95 -3 -106 -2 -106
14 0 9 8 19 18 21 42 11 152 6 198 -10z m-296 -33 c0 -21 -24 -30 -134 -49
-120 -22 -202 -4 -89 19 32 6 87 20 123 30 86 24 100 24 100 0z m-970 -219
c173 -40 250 -72 456 -187 45 -24 55 -27 77 -17 18 9 28 23 33 48 15 81 24 23
24 -155 0 -182 -10 -244 -24 -142 -9 69 -57 160 -112 215 -194 192 -659 293
-976 212 -150 -38 -292 -145 -351 -264 -30 -61 -32 -72 -32 -171 0 -96 2 -109
27 -151 39 -67 133 -149 225 -197 101 -52 227 -94 516 -171 281 -75 416 -120
532 -177 220 -107 321 -239 332 -435 21 -348 -242 -632 -651 -704 -222 -38
-517 1 -795 105 -153 58 -179 53 -189 -35 -3 -30 -9 -45 -19 -45 -12 0 -14 30
-11 182 2 109 7 183 13 185 6 1 23 -18 39 -43 94 -149 270 -256 510 -311 157
-36 379 -38 511 -5 332 85 564 327 565 589 0 89 -30 161 -97 233 -124 135
-278 208 -643 305 -392 105 -524 151 -653 227 -160 96 -234 200 -244 344 -16
241 75 406 282 510 133 66 232 85 420 79 99 -3 179 -11 235 -24z m1230 -40 c0
-12 -25 -21 -56 -21 -14 0 -36 -11 -49 -25 l-25 -24 2 -1118 3 -1118 338 -3
c386 -3 393 -1 421 69 9 22 16 55 16 74 0 24 5 35 15 35 12 0 15 -18 15 -100
l0 -100 -535 0 c-469 0 -535 2 -535 15 0 8 3 14 8 14 35 -6 68 5 93 30 l29 29
0 1082 0 1082 -29 29 c-16 16 -38 29 -49 29 -27 0 -52 10 -52 21 0 5 87 9 195
9 108 0 195 -4 195 -9z m-1088 -2564 c2 -46 -1 -67 -9 -67 -15 0 -23 178 -8
183 11 4 13 -11 17 -116z m620 20 c2 -64 0 -87 -9 -87 -10 0 -13 24 -13 88 0
49 3 92 7 96 11 10 12 2 15 -97z m-678 67 c22 -21 20 -31 -1 -12 -10 9 -25 18
-33 21 -12 4 -12 6 2 6 9 1 24 -6 32 -15z m368 -60 c-3 -57 -1 -79 9 -85 10
-6 7 -9 -11 -9 -25 0 -25 0 -22 85 2 57 7 85 15 85 9 0 11 -22 9 -76z m493 -9
c0 -69 -3 -85 -15 -85 -12 0 -14 15 -12 85 2 57 7 85 15 85 8 0 12 -26 12 -85z
m-932 51 c-4 -21 1 -27 28 -39 49 -20 64 -42 51 -70 l-11 -22 0 22 c-1 15 -14
29 -43 45 -45 25 -58 49 -38 73 17 20 18 19 13 -9z m267 16 c0 -13 -12 -22
-22 -16 -10 6 -1 24 13 24 5 0 9 -4 9 -8z m290 -7 c0 -8 -4 -15 -10 -15 -5 0
-10 7 -10 15 0 8 5 15 10 15 6 0 10 -7 10 -15z m-352 -37 c5 -7 11 -34 13 -60
3 -38 1 -48 -11 -48 -12 0 -14 10 -12 44 3 36 0 46 -19 60 -23 16 -23 16 -2
16 11 0 25 -6 31 -12z m62 -48 c0 -41 -4 -60 -12 -60 -9 0 -12 17 -11 57 2 70
1 63 13 63 6 0 10 -27 10 -60z m59 15 c7 -25 17 -45 22 -45 5 0 6 -7 3 -15
-10 -26 -19 -17 -40 37 -10 29 -20 56 -22 60 -2 4 2 8 10 8 8 0 20 -20 27 -45z
m65 30 c-4 -8 -8 -15 -10 -15 -2 0 -4 7 -4 15 0 8 4 15 10 15 5 0 7 -7 4 -15z
m168 -57 c2 -38 0 -48 -12 -48 -11 0 -15 12 -15 52 0 29 5 56 10 60 11 8 13 3
17 -64z m51 8 c2 -39 -2 -56 -10 -56 -14 0 -19 101 -6 113 11 12 15 0 16 -57z
m75 52 c5 -7 11 -34 13 -60 3 -38 1 -48 -11 -48 -12 0 -14 11 -12 50 4 45 1
51 -20 59 -22 9 -22 10 -2 10 12 1 26 -5 32 -11z m137 2 c-3 -5 -10 -10 -16
-10 -5 0 -9 5 -9 10 0 6 7 10 16 10 8 0 12 -4 9 -10z m165 -50 c0 -41 -4 -60
-12 -60 -9 0 -13 16 -11 53 2 68 1 67 13 67 6 0 10 -27 10 -60z m80 -2 c4 -43
2 -58 -7 -58 -9 0 -13 16 -13 50 0 43 -3 52 -22 60 -21 9 -20 9 7 7 29 -2 30
-4 35 -59z m125 53 c10 -17 -11 -21 -31 -6 -18 14 -18 14 3 15 12 0 24 -4 28
-9z m-74 -23 c-16 -44 17 -86 56 -71 11 4 14 3 9 -5 -9 -16 -59 -15 -74 0 -21
21 -10 98 15 98 1 0 -1 -10 -6 -22z m-315 -40 c9 -18 22 -36 28 -40 7 -5 4 -8
-7 -8 -18 0 -60 58 -51 72 8 13 13 10 30 -24z m-786 -42 c8 -3 4 -4 -10 -3
-16 1 -26 9 -28 22 -3 18 -3 18 10 4 7 -9 20 -19 28 -23z m500 4 c0 -5 -12
-10 -27 -9 l-28 1 25 8 c14 4 26 8 28 9 1 1 2 -3 2 -9z m730 0 c0 -5 -4 -10
-10 -10 -5 0 -10 5 -10 10 0 6 5 10 10 10 6 0 10 -4 10 -10z m-1087 -173 c-15
-16 -18 -16 -25 -2 -8 13 -52 15 -344 15 -228 -1 -333 -4 -328 -11 3 -6 -3 -5
-14 2 -12 7 -20 15 -18 17 2 1 159 3 349 2 221 0 348 3 352 10 4 6 13 5 25 -2
18 -12 18 -14 3 -31z m1291 23 c192 0 347 -2 344 -6 -3 -3 -159 -5 -346 -4
-281 0 -343 -2 -354 -14 -13 -12 -16 -12 -26 4 -13 21 5 47 22 30 6 -6 140
-10 360 -10z m-824 -5 c0 -8 -7 -15 -15 -15 -16 0 -20 12 -8 23 11 12 23 8 23
-8z m-152 -2 c-49 -2 -127 -2 -175 0 -49 1 -9 3 87 3 96 0 136 -2 88 -3z m450
0 c-49 -2 -127 -2 -175 0 -49 1 -9 3 87 3 96 0 136 -2 88 -3z"/>
</g>
</svg>
